<svg width="22.000000" height="22.000000" viewBox="0 0 22 22" fill="none" xmlns="http://www.w3.org/2000/svg" xmlns:xlink="http://www.w3.org/1999/xlink">
	<desc>
			Created with Pixso.
	</desc>
	<defs/>
	<path id="Vector" d="M15.37 13.5L14.38 13.5L14.03 13.16C15.3 11.69 16 9.81 16 7.87C16 6.26 15.52 4.69 14.63 3.36C13.73 2.02 12.46 0.98 10.98 0.36C9.49 -0.25 7.86 -0.41 6.28 -0.1C4.71 0.21 3.26 0.99 2.12 2.12C0.99 3.26 0.21 4.71 -0.1 6.28C-0.41 7.86 -0.25 9.49 0.36 10.98C0.98 12.46 2.02 13.73 3.36 14.63C4.69 15.52 6.26 16 7.87 16C9.88 16 11.73 15.26 13.16 14.03L13.5 14.38L13.5 15.37L19.75 21.61L21.61 19.75L15.37 13.5ZM7.87 13.5C4.76 13.5 2.25 10.98 2.25 7.87C2.25 4.76 4.76 2.25 7.87 2.25C10.98 2.25 13.5 4.76 13.5 7.87C13.5 10.98 10.98 13.5 7.87 13.5Z" fill="#FFFFFF" fill-opacity="1.000000" fill-rule="nonzero"/>
</svg>
