<svg width="97.000000" height="30.000000" viewBox="0 0 97 30" fill="none" xmlns="http://www.w3.org/2000/svg" xmlns:xlink="http://www.w3.org/1999/xlink">
	<desc>
			Created with Pixso.
	</desc>
	<defs/>
	<path id="Vector" d="M20.55 0L25.74 0L25.74 24.04L19.78 24.04L19.78 9.02L13.32 16.56L12.41 16.56L5.96 9.02L5.96 24.04L0 24.04L0 0L5.19 0L12.87 8.92L20.55 0ZM55.66 24.04L49.24 24.04L47.27 19.28L36.57 19.28L34.79 24.04L28.47 24.04L38.12 0L45.03 0L55.66 24.04ZM41.66 5.74L38.15 15.08L45.52 15.08L41.66 5.74ZM57.51 28.9C58.52 27.99 59.29 26.05 59.08 24.35C57.86 23.86 57.29 23.09 57.29 21.78C57.29 20.16 58.52 19 60.18 19C62.24 19 63.68 20.65 63.68 23.02C63.68 26.54 60.95 29.64 57.51 30L57.51 28.9ZM72.56 9.87C73.43 9.05 74.35 8.46 75.26 8.03C76.18 7.65 77.17 7.46 78.17 7.47C80.98 7.47 82.87 8.6 83.99 10.93C86.1 8.49 87.96 7.47 90.38 7.47C94.06 7.47 96.69 9.9 96.69 13.6L96.69 24.04L91.61 24.04L91.61 14.52C91.61 12.19 90.48 10.89 88.62 10.89C87.15 10.89 85.78 11.84 84.62 13.64L84.62 24.04L79.54 24.04L79.54 14.41C79.54 11.77 77.96 10.89 76.45 10.89C75.12 10.89 73.79 11.66 72.56 13.14L72.56 24.04L67.47 24.04L67.47 7.79L72.56 7.79L72.56 9.87L72.56 9.87Z" fill="#FFFFFF" fill-opacity="1.000000" fill-rule="evenodd"/>
</svg>
